<svg width="12" height="12" viewBox="0 0 12 12" fill="none" xmlns="http://www.w3.org/2000/svg">
<path d="M6 1.21875C5.05436 1.21875 4.12995 1.49917 3.34368 2.02454C2.55741 2.54991 1.94458 3.29664 1.5827 4.1703C1.22082 5.04395 1.12614 6.0053 1.31062 6.93278C1.49511 7.86025 1.95048 8.71218 2.61915 9.38085C3.28782 10.0495 4.13975 10.5049 5.06723 10.6894C5.9947 10.8739 6.95605 10.7792 7.82971 10.4173C8.70337 10.0554 9.4501 9.44259 9.97547 8.65632C10.5008 7.87005 10.7813 6.94564 10.7813 6C10.7798 4.73239 10.2755 3.51713 9.37921 2.62079C8.48288 1.72445 7.26761 1.22024 6 1.21875ZM9.64078 8.12906H7.9636L7.47235 7.45312L8.09531 5.63812L8.89219 5.37984L10.2019 6.38437C10.1459 7.00021 9.95425 7.59602 9.64078 8.12906ZM4.03641 8.12906H2.35922C2.04608 7.59594 1.85479 7.00014 1.79906 6.38437L3.10875 5.37984L3.90563 5.63812L4.52766 7.45312L4.03641 8.12906ZM2.39063 3.81656L2.73 4.96078L1.7925 5.67984C1.84221 5.02028 2.04716 4.38182 2.39063 3.81656ZM5.04188 7.21875L4.46016 5.52469L6 4.46625L7.53985 5.52469L6.95813 7.21875H5.04188ZM9.26953 4.96078L9.60938 3.81656C9.95268 4.38186 10.1575 5.02032 10.207 5.67984L9.26953 4.96078ZM9.19172 3.24422L8.71875 4.84453L7.92188 5.10375L6.28125 3.97875V3.14813L7.72969 2.1525C8.29061 2.40579 8.78954 2.77835 9.19172 3.24422ZM7.07438 1.92188L6 2.65875L4.92563 1.92188C5.62993 1.73684 6.37008 1.73684 7.07438 1.92188ZM4.27078 2.15203L5.71875 3.14813V3.97687L4.07813 5.10187L3.28125 4.84266L2.80828 3.24422C3.21065 2.77824 3.70973 2.40553 4.27078 2.15203ZM2.75391 8.69156H3.9811L4.41188 9.91031C3.76748 9.64646 3.19804 9.22786 2.75391 8.69156ZM5.08266 10.118L4.49438 8.45578L4.98469 7.78125H7.01532L7.50563 8.45578L6.91735 10.118C6.31317 10.2524 5.68683 10.2524 5.08266 10.118ZM7.58813 9.90797L8.01891 8.68922H9.2461C8.80197 9.22552 8.23252 9.64411 7.58813 9.90797Z" fill="url(#paint0_linear_139_70)"/>
<defs>
<linearGradient id="paint0_linear_139_70" x1="1" y1="11" x2="11" y2="1" gradientUnits="userSpaceOnUse">
<stop stop-color="#DC1FFF"/>
<stop offset="1" stop-color="#00FFA3"/>
<stop offset="1" stop-color="#03E1FF"/>
</linearGradient>
</defs>
</svg>
